<?xml version="1.0" standalone="no"?>
<!DOCTYPE svg PUBLIC "-//W3C//DTD SVG 20010904//EN"
 "http://www.w3.org/TR/2001/REC-SVG-20010904/DTD/svg10.dtd">
<svg version="1.0" xmlns="http://www.w3.org/2000/svg"
 width="500.000000pt" height="500.000000pt" viewBox="0 0 500.000000 500.000000"
 preserveAspectRatio="xMidYMid meet">
<metadata>
Created by potrace 1.14, written by Peter Selinger 2001-2017
</metadata>
<g transform="translate(0.000000,500.000000) scale(0.100000,-0.100000)"
fill="#000000" stroke="none">
<path d="M0 2500 l0 -2500 519 0 c381 0 520 3 523 11 3 9 9 9 24 1 13 -7 141
-11 362 -12 l343 -1 -6 28 c-4 15 -11 37 -15 48 -38 87 -46 115 -32 115 12 0
32 -46 32 -71 0 -10 4 -27 9 -37 5 -9 12 -25 15 -36 4 -11 12 -16 21 -12 10 4
15 -1 15 -14 0 -18 7 -20 85 -20 74 0 86 3 97 20 16 26 28 26 21 0 -5 -19 0
-20 85 -20 102 0 111 6 86 66 -14 34 -14 41 1 80 9 23 23 45 30 48 19 7 19 7
-4 -39 -10 -21 -16 -48 -13 -59 8 -33 42 -50 42 -21 0 8 5 15 10 15 6 0 10 5
10 10 0 6 9 19 21 31 29 29 22 62 -16 70 l-30 5 33 8 c53 12 89 0 91 -32 5
-83 1 -157 -8 -160 -6 -2 -11 -8 -11 -13 0 -17 46 -9 68 11 23 22 56 30 34 8
-21 -21 -13 -28 33 -28 43 0 45 1 45 30 0 29 1 30 51 30 43 0 50 -3 47 -17 -2
-11 -12 -17 -25 -16 -12 1 -24 -4 -27 -12 -4 -13 11 -15 98 -15 l103 0 11 39
c7 21 12 45 12 53 0 22 23 38 39 28 12 -7 11 -17 -7 -58 -12 -28 -22 -53 -22
-56 0 -3 495 -6 1100 -6 l1100 0 0 2500 0 2500 -838 0 -838 0 4 -58 c4 -55 3
-59 -24 -77 -19 -12 -49 -20 -86 -21 -54 -1 -58 0 -58 22 0 12 -5 24 -11 26
-6 2 -11 26 -11 56 l0 52 -50 0 c-43 0 -49 -2 -38 -14 6 -8 21 -16 32 -18 34
-5 34 -28 1 -28 -15 0 -35 -4 -43 -10 -12 -7 -11 -12 5 -31 11 -12 33 -27 49
-34 l29 -13 -27 -27 c-25 -25 -28 -26 -45 -11 -24 22 -31 20 -32 -6 0 -22 -1
-22 -8 -3 -5 13 -27 25 -62 35 -48 14 -56 20 -75 60 -15 31 -19 50 -13 62 16
29 10 38 -26 38 -28 0 -35 -4 -35 -20 0 -11 -7 -20 -15 -20 -8 0 -15 9 -15 20
0 19 -7 20 -113 20 -77 0 -117 -4 -126 -12 -11 -10 -14 -10 -18 0 -3 8 -28 12
-78 12 -49 0 -75 -4 -78 -12 -4 -10 -6 -10 -6 0 -1 6 -11 12 -24 12 -17 0 -29
-10 -42 -37 l-20 -38 -3 38 -3 37 -1130 0 -1129 0 0 -2500z m3501 2409 c20
-15 20 -15 1 -39 -28 -35 -38 -20 -32 52 2 36 6 50 8 33 2 -16 12 -37 23 -46z
m219 52 c-23 -6 -26 -12 -21 -41 0 -5 9 -10 19 -10 25 0 55 -34 50 -57 -2 -14
-13 -18 -53 -19 -28 -1 -36 0 -17 3 41 6 43 31 2 61 -16 13 -30 27 -30 33 0
19 25 38 50 38 l25 -1 -25 -7z m-909 -53 c11 -11 19 -29 19 -39 0 -10 4 -20 9
-23 16 -10 -1 -46 -28 -60 -82 -42 -172 57 -111 122 28 30 86 30 111 0z m-535
-56 c-12 -11 -17 7 -9 34 l8 29 3 -28 c2 -16 1 -31 -2 -35z m2461 21 c-15 -16
-17 -16 -17 -1 0 9 6 18 13 21 20 7 22 -2 4 -20z m-2169 -15 c-4 -39 19 -50
25 -11 l4 28 2 -30 c1 -20 -5 -34 -19 -43 -21 -13 -28 -52 -9 -52 6 0 7 -5 2
-12 -8 -13 -9 -18 -11 -52 -2 -16 -4 -16 -18 -5 -8 7 -13 21 -11 31 3 10 1 21
-4 24 -6 4 -6 11 1 19 11 14 -1 58 -19 69 -7 5 -7 14 2 29 26 48 60 51 55 5z
m1700 -11 c2 -10 -3 -17 -12 -17 -10 0 -16 9 -16 21 0 24 23 21 28 -4z m-131
-9 c-3 -8 -6 -5 -6 6 -1 11 2 17 5 13 3 -3 4 -12 1 -19z m350 16 c-3 -3 -12
-4 -19 -1 -8 3 -5 6 6 6 11 1 17 -2 13 -5z m-917 -34 c0 -5 -5 -10 -11 -10 -5
0 -7 5 -4 10 3 6 8 10 11 10 2 0 4 -4 4 -10z m-1103 -72 c-3 -7 -5 -2 -5 12 0
14 2 19 5 13 2 -7 2 -19 0 -25z m801 -27 c-1 -17 5 -38 15 -49 10 -11 21 -37
24 -58 3 -22 10 -47 15 -57 8 -16 7 -18 -10 -13 -14 5 -21 1 -25 -14 -5 -19
-10 -20 -44 -14 -58 10 -85 40 -81 89 2 32 9 43 35 60 19 12 32 29 33 41 0 20
17 44 32 44 5 0 7 -13 6 -29z m539 7 c-3 -8 -6 -5 -6 6 -1 11 2 17 5 13 3 -3
4 -12 1 -19z m-840 -28 c9 -16 21 -30 26 -30 12 0 32 21 40 43 3 9 14 17 23
17 13 0 15 -6 10 -31 -3 -17 -6 -38 -6 -45 0 -7 -6 -11 -14 -8 -22 8 -30 -15
-12 -35 9 -10 16 -23 16 -29 0 -7 5 -12 10 -12 6 0 10 5 10 12 0 6 3 8 7 4 4
-3 8 -28 10 -55 3 -47 2 -49 -27 -53 -37 -6 -59 14 -41 36 10 11 9 21 -4 45
-20 40 -29 39 -49 -4 -9 -19 -23 -35 -31 -35 -8 0 -15 2 -15 5 0 12 24 55 31
55 4 0 10 13 14 29 5 22 0 42 -19 75 -19 35 -22 46 -11 46 7 0 22 -13 32 -30z
m533 13 c0 -12 -3 -14 -8 -7 -4 7 -16 14 -27 17 -15 4 -14 5 8 6 20 1 27 -4
27 -16z m-173 -25 c-3 -8 -6 -5 -6 6 -1 11 2 17 5 13 3 -3 4 -12 1 -19z m441
-5 c-3 -32 -32 -43 -42 -17 -4 10 1 22 11 30 27 20 35 17 31 -13z m-218 -8 c0
-8 -7 -15 -15 -15 -16 0 -20 12 -8 23 11 12 23 8 23 -8z m-795 -15 c3 -5 -1
-10 -9 -10 -9 0 -16 5 -16 10 0 6 4 10 9 10 6 0 13 -4 16 -10z m1055 0 c0 -5
-4 -10 -10 -10 -5 0 -10 5 -10 10 0 6 5 10 10 10 6 0 10 -4 10 -10z m-1260
-19 c0 -17 -12 -41 -21 -41 -10 0 -12 33 -2 43 9 10 23 9 23 -2z m-5 -76 c3
-14 8 -37 12 -52 4 -16 7 -35 8 -43 1 -8 6 -27 12 -41 17 -40 19 -61 6 -66 -7
-3 -15 8 -19 24 -4 15 -11 34 -16 40 -6 7 -8 19 -5 26 5 14 -21 77 -36 88 -11
8 9 49 23 49 5 0 12 -11 15 -25z m52 -17 c-3 -7 -5 -2 -5 12 0 14 2 19 5 13 2
-7 2 -19 0 -25z m221 -26 c-5 -27 -28 -26 -28 2 0 19 4 24 15 19 9 -3 15 -12
13 -21z m8 -59 c-10 -10 -19 5 -10 18 6 11 8 11 12 0 2 -7 1 -15 -2 -18z m488
-36 c-10 -28 -24 -19 -24 15 0 29 2 31 15 17 9 -9 13 -23 9 -32z m-842 1 c-9
-9 -12 -7 -12 12 0 19 3 21 12 12 9 -9 9 -15 0 -24z m600 5 c20 -18 26 -109 8
-115 -6 -2 -11 -44 -12 -96 -2 -92 -11 -117 -21 -63 -6 30 -33 41 -98 41 l-29
0 0 108 c0 60 3 111 6 114 3 3 13 4 23 1 21 -5 18 -33 -6 -68 -16 -23 -17 -71
-2 -80 12 -8 40 25 35 40 -2 6 -7 18 -12 29 -6 15 -4 17 13 12 23 -7 36 13 26
39 -6 16 22 55 40 55 6 0 19 -7 29 -17z m498 -60 l0 -53 -45 0 c-38 0 -45 -3
-45 -19 0 -21 38 -54 52 -45 4 3 8 -1 8 -9 0 -8 7 -20 15 -27 8 -7 15 -24 15
-37 0 -20 -3 -23 -13 -15 -7 6 -26 10 -43 9 -28 -2 -29 -1 -26 41 2 25 -1 42
-7 42 -6 0 -11 9 -11 20 0 20 -3 27 -33 86 -22 42 -9 51 18 14 25 -34 35 -30
35 14 0 30 2 31 40 31 l40 0 0 -52z m-1474 -21 c-11 -10 -14 3 -7 38 l6 35 3
-33 c2 -19 1 -36 -2 -40z m716 33 c-2 -9 5 -26 14 -36 17 -18 17 -21 1 -37
-14 -14 -21 -14 -37 -4 -29 18 -40 15 -66 -15 -32 -37 -37 -68 -18 -108 19
-41 60 -57 79 -31 7 9 17 16 22 16 17 0 22 -38 7 -51 -8 -6 -14 -29 -14 -51 0
-36 -2 -38 -20 -28 -11 6 -20 21 -20 33 0 14 -16 36 -42 58 -41 35 -42 39 -42
94 0 54 2 60 34 86 19 16 45 29 58 29 20 0 23 4 19 21 -3 11 -3 27 0 35 8 20
29 11 25 -11z m-365 -7 c-3 -8 -6 -5 -6 6 -1 11 2 17 5 13 3 -3 4 -12 1 -19z
m1365 -115 c2 -51 1 -93 -3 -93 -4 0 -9 15 -11 33 -2 25 -8 33 -26 35 -18 3
-26 -4 -37 -32 -16 -37 -45 -49 -45 -19 0 23 -33 103 -42 103 -5 0 -8 -27 -8
-60 0 -54 -2 -60 -21 -60 -19 0 -20 4 -14 43 3 23 9 68 12 100 7 69 27 74 50
12 8 -22 20 -52 25 -67 6 -16 16 -28 22 -28 11 0 36 66 36 95 0 9 7 27 16 41
16 23 18 23 29 7 7 -10 14 -60 17 -110z m-1483 66 c-19 -12 -24 -2 -8 17 9 11
14 13 17 4 3 -7 -2 -16 -9 -21z m952 18 c9 -7 16 -27 17 -46 0 -19 4 -51 7
-71 6 -36 5 -37 -25 -37 -24 0 -29 4 -24 16 4 9 9 35 12 58 3 35 0 43 -18 53
-37 20 -50 6 -50 -55 0 -49 -2 -55 -20 -55 -19 0 -21 5 -18 67 3 55 6 67 21
69 11 1 21 5 25 8 10 10 56 6 73 -7z m757 -77 c-7 -11 -14 -16 -16 -10 -7 19
-32 10 -44 -15 -9 -21 -8 -27 7 -38 15 -11 15 -17 5 -34 -8 -12 -10 -31 -6
-46 5 -22 12 -27 36 -27 16 0 32 -4 35 -10 4 -6 -12 -10 -39 -10 -42 0 -46 2
-46 24 0 13 -7 29 -15 36 -10 9 -13 24 -8 55 7 51 -8 65 -32 29 -12 -19 -14
-29 -5 -39 8 -9 8 -15 0 -20 -6 -4 -23 -25 -37 -48 -41 -64 -40 -23 2 58 19
38 35 74 35 80 0 24 26 35 82 35 56 0 58 -1 46 -20z m-1718 0 c0 -5 -5 -10
-11 -10 -5 0 -7 5 -4 10 3 6 8 10 11 10 2 0 4 -4 4 -10z m-30 -42 c0 -7 -4
-19 -9 -27 -11 -17 -23 1 -15 23 7 19 24 21 24 4z m1957 -50 c-3 -7 -5 -2 -5
12 0 14 2 19 5 13 2 -7 2 -19 0 -25z m-1688 6 c29 -6 31 -9 31 -53 0 -84 -5
-91 -64 -90 -28 1 -42 4 -31 6 54 13 73 75 35 113 -32 32 -27 35 29 24z m-100
-45 c-11 -7 -11 -14 5 -39 20 -35 14 -54 -9 -24 -18 23 -19 48 -3 77 8 15 13
18 16 8 2 -7 -2 -17 -9 -22z m830 5 c5 3 12 -1 15 -10 9 -24 7 -54 -4 -54 -5
0 -10 -8 -10 -18 0 -10 -5 -23 -12 -30 -9 -9 -9 -20 2 -50 7 -20 13 -50 12
-65 l-2 -28 62 33 63 33 3 68 c2 51 6 67 17 67 11 0 15 -13 15 -53 0 -51 1
-54 36 -70 19 -10 39 -15 44 -12 5 3 24 -8 41 -25 18 -16 36 -30 41 -30 5 0
47 -18 94 -40 47 -22 90 -40 95 -40 24 0 0 -20 -91 -75 -54 -33 -98 -60 -97
-61 1 -1 38 -30 82 -63 68 -53 81 -59 86 -44 5 14 8 11 10 -11 3 -22 21 -44
69 -84 36 -30 83 -71 105 -91 l40 -36 -55 -7 c-30 -4 -81 -10 -114 -14 l-58
-6 38 -40 c37 -38 165 -138 177 -138 3 0 8 10 10 23 4 20 4 20 6 -4 1 -32 15
-49 70 -88 l44 -31 -41 0 c-22 0 -43 -4 -46 -8 -3 -5 15 -31 39 -59 50 -57 53
-63 28 -63 -14 0 -13 -4 7 -25 12 -13 24 -35 25 -48 4 -36 19 -60 64 -100 23
-20 41 -40 41 -43 0 -7 -192 1 -405 16 -71 5 -206 14 -300 20 -93 6 -224 15
-290 20 -480 37 -605 43 -623 28 -27 -24 -50 -28 -62 -12 -18 21 -34 17 -71
-17 -50 -47 -63 -51 -83 -27 -16 18 -25 20 -84 14 -37 -3 -402 -9 -812 -12
l-744 -7 119 117 120 116 -36 0 c-29 0 -35 4 -37 23 -1 18 34 57 163 178 147
137 164 158 165 187 0 36 -15 46 -100 62 -25 5 -65 15 -90 23 l-45 13 93 69
c98 74 97 70 28 95 l-29 10 22 19 c11 10 21 22 21 27 0 5 42 27 93 48 50 21
96 42 100 46 5 4 -16 22 -45 40 l-53 33 53 24 c28 14 52 31 52 39 0 8 5 14 10
14 6 0 10 -5 10 -11 0 -5 5 -7 11 -4 7 5 5 13 -5 24 -23 25 -21 28 22 35 20 4
74 19 118 33 l82 26 78 -48 c188 -116 395 -270 512 -380 50 -47 82 -71 82 -61
0 18 15 21 25 5 4 -6 19 -7 37 -4 23 6 29 4 26 -6 -3 -9 -17 -13 -36 -11 -53
5 -47 -24 11 -53 12 -6 24 -24 28 -41 3 -18 15 -45 26 -60 11 -16 34 -57 51
-90 44 -87 84 -94 98 -18 3 19 10 34 14 34 5 0 29 30 55 66 26 36 75 95 109
131 40 43 54 64 40 59 -14 -4 -26 -1 -34 9 -11 13 -10 19 4 33 16 16 19 16 46
0 l29 -17 80 61 c72 55 80 64 74 87 -3 14 -10 32 -16 39 -14 18 -1 27 18 12 8
-7 15 -23 15 -36 0 -13 3 -24 7 -24 12 0 43 33 43 46 0 18 21 29 29 15 5 -7
38 8 97 45 99 62 121 80 111 91 -4 3 -13 1 -19 -5 -15 -15 -68 -16 -68 -2 0 6
9 10 19 10 30 0 34 16 33 111 -1 87 -1 87 26 94 23 6 25 8 9 16 -9 6 -17 17
-17 26 0 12 3 13 15 3 8 -6 18 -9 24 -6z m925 -27 c-3 -9 -10 -17 -15 -17 -11
0 -12 34 -2 44 11 11 24 -9 17 -27z m-1197 1 c-3 -8 -6 -5 -6 6 -1 11 2 17 5
13 3 -3 4 -12 1 -19z m553 -21 c0 -20 -5 -24 -35 -25 -24 -1 -38 4 -44 17 -14
25 -5 31 41 31 33 0 38 -3 38 -23z m-514 -72 c-5 -58 -3 -65 13 -65 15 0 18
-9 18 -58 l0 -57 -39 -1 c-30 -1 -38 2 -38 16 0 10 -7 20 -15 24 -15 6 -49 73
-59 119 -10 44 19 33 34 -14 8 -22 17 -42 21 -45 15 -9 39 54 39 101 0 34 4
45 15 45 13 0 15 -11 11 -65z m-2889 13 c-3 -8 -6 -5 -6 6 -1 11 2 17 5 13 3
-3 4 -12 1 -19z m3601 -10 c-2 -13 -11 -24 -20 -26 -21 -4 -24 18 -6 36 19 19
30 14 26 -10z m-115 -8 c3 -11 1 -33 -3 -48 l-8 -27 -1 33 c-1 17 -5 32 -11
32 -5 0 -10 7 -10 15 0 22 27 18 33 -5z m-123 6 c0 -9 -30 -14 -35 -6 -4 6 3
10 14 10 12 0 21 -2 21 -4z m40 -6 c0 -5 -4 -10 -10 -10 -5 0 -10 5 -10 10 0
6 5 10 10 10 6 0 10 -4 10 -10z m630 -35 c0 -3 -9 -16 -20 -28 -23 -24 -20
-60 5 -86 11 -11 17 -12 28 -3 15 13 27 6 27 -14 0 -19 -32 -22 -62 -5 -44 24
-49 98 -9 128 17 13 31 16 31 8z m-1657 -79 c2 -37 -1 -46 -13 -44 -10 2 -15
16 -16 39 0 19 -4 41 -8 47 -4 7 -4 17 0 23 13 21 36 -18 37 -65z m250 42 c12
-7 24 -14 26 -15 2 -2 7 -23 11 -47 5 -35 3 -46 -8 -51 -24 -9 -53 25 -50 59
3 27 0 31 -25 34 -28 3 -28 3 -25 -50 l3 -53 39 -2 c62 -2 70 -23 9 -23 -46 0
-54 3 -73 30 -26 37 -21 71 17 106 29 27 44 29 76 12z m1001 6 c12 -5 16 -20
16 -60 0 -55 -8 -66 -30 -39 -7 9 -21 13 -31 10 -28 -9 -26 48 3 75 25 23 22
22 42 14z m-1197 -71 c-3 -10 -5 -2 -5 17 0 19 2 27 5 18 2 -10 2 -26 0 -35z
m1873 1 c0 -8 -4 -12 -10 -9 -5 3 -10 10 -10 16 0 5 5 9 10 9 6 0 10 -7 10
-16z m-2114 -166 c-3 -30 -7 -33 -40 -36 -43 -4 -45 4 -8 39 38 37 53 36 48
-3z m244 -47 c0 -17 -13 -13 -38 14 -13 13 -21 29 -18 34 7 11 56 -31 56 -48z
m-2476 34 c18 -14 18 -15 2 -15 -15 0 -17 -8 -15 -57 2 -37 -1 -58 -9 -61 -9
-3 -12 18 -12 72 0 42 3 76 8 76 4 0 16 -7 26 -15z m2680 0 c-4 -10 0 -15 15
-15 12 0 21 -4 21 -10 0 -9 -39 -35 -44 -28 -17 21 -22 43 -12 54 15 18 27 17
20 -1z m946 -10 c0 -8 5 -15 12 -15 6 0 9 -2 7 -5 -3 -2 -22 2 -43 9 -24 8
-33 16 -25 19 27 10 49 7 49 -8z m468 3 c7 -7 12 -22 12 -34 0 -13 5 -26 10
-29 6 -3 10 -17 10 -31 0 -14 7 -32 16 -41 16 -16 16 -52 -1 -56 -5 -1 -11 8
-13 20 -2 13 -14 31 -27 41 -16 13 -21 22 -14 29 15 15 -7 64 -26 57 -17 -7
-20 9 -5 37 12 22 21 24 38 7z m-1980 -62 c3 -12 -1 -17 -10 -14 -7 3 -15 13
-16 22 -3 12 1 17 10 14 7 -3 15 -13 16 -22z m1918 -71 c-9 -7 -16 -22 -16
-34 0 -12 -4 -20 -9 -17 -10 7 -2 54 10 62 5 3 9 17 10 32 l1 27 10 -29 c9
-24 8 -31 -6 -41z m-1825 33 l34 -12 -35 -7 c-28 -6 -39 -4 -53 12 -17 18 -17
19 1 19 11 0 34 -5 53 -12z m179 8 c0 -11 -19 -15 -25 -6 -3 5 1 10 9 10 9 0
16 -2 16 -4z m43 -3 c-7 -2 -19 -2 -25 0 -7 3 -2 5 12 5 14 0 19 -2 13 -5z
m29 -126 c3 -73 2 -78 -16 -75 -17 3 -20 10 -18 53 3 56 -3 69 -35 79 -19 6
-25 2 -33 -19 -5 -14 -10 -46 -10 -71 0 -33 -4 -44 -15 -44 -13 0 -15 13 -13
73 l3 72 48 3 c32 2 50 8 54 18 13 34 31 -12 35 -89z m1888 13 c0 -5 -4 -10
-10 -10 -5 0 -10 5 -10 10 0 6 5 10 10 10 6 0 10 -4 10 -10z m-4279 -77 c2
-80 -2 -113 -17 -149 -12 -29 -19 -34 -48 -34 -24 0 -43 9 -65 29 -31 29 -32
32 -29 107 2 51 7 79 16 82 9 3 12 -16 12 -71 0 -99 4 -107 50 -107 47 0 52
11 45 95 -5 69 0 95 21 95 10 0 14 -13 15 -47z m4325 -9 c0 -21 -1 -50 -4 -63
-5 -23 -6 -23 -18 -6 -14 19 -19 96 -7 109 15 15 28 -3 29 -40z m-139 -97 c-2
-23 -3 -1 -3 48 0 50 1 68 3 42 2 -26 2 -67 0 -90z m-3770 101 c-3 -8 -6 -5
-6 6 -1 11 2 17 5 13 3 -3 4 -12 1 -19z m3653 -202 c-7 -18 -16 -26 -28 -24
-21 4 -18 35 9 97 22 50 24 82 7 99 -10 10 -10 15 2 22 13 8 15 -4 18 -79 1
-48 -2 -100 -8 -115z m-110 10 c6 -6 10 -14 10 -19 0 -5 -7 -1 -16 8 -19 19
-30 121 -18 162 7 22 10 10 12 -57 2 -47 7 -89 12 -94z m-3545 154 c4 -6 1
-18 -6 -26 -11 -14 -13 -14 -21 0 -15 26 12 51 27 26z m-19 -118 c-11 -10 -14
3 -8 33 l7 30 3 -28 c2 -16 1 -31 -2 -35z m3904 24 c0 -23 -25 -43 -34 -27 -4
6 23 50 32 51 1 0 2 -11 2 -24z m-3350 -12 c0 -8 -6 -14 -14 -14 -9 0 -12 7
-9 20 6 22 23 18 23 -6z m-976 -163 c9 -14 -19 -60 -31 -53 -15 9 -4 62 13 62
7 0 15 -4 18 -9z m736 0 c0 -6 -4 -13 -10 -16 -5 -3 -10 1 -10 9 0 9 5 16 10
16 6 0 10 -4 10 -9z m3614 -33 c8 -33 7 -48 -4 -48 -5 0 -10 11 -10 25 0 14
-4 25 -10 25 -5 0 -10 5 -10 10 0 20 28 9 34 -12z m-4120 -23 c3 -8 1 -15 -4
-15 -6 0 -10 7 -10 15 0 8 2 15 4 15 2 0 6 -7 10 -15z m-189 -29 c-4 -11 -9
-34 -12 -49 -3 -16 -12 -31 -20 -34 -8 -3 -18 -14 -21 -24 -10 -25 -33 -9 -26
18 3 11 17 26 31 32 19 9 24 18 23 44 -3 45 -2 47 16 40 11 -4 14 -12 9 -27z
m-188 -18 c-3 -8 -6 -5 -6 6 -1 11 2 17 5 13 3 -3 4 -12 1 -19z m4513 -30 c-1
-20 -26 -48 -43 -48 -14 0 -14 3 1 30 17 30 42 41 42 18z m-3635 -37 c3 -5 1
-12 -5 -16 -5 -3 -10 1 -10 9 0 18 6 21 15 7z m-791 -146 c3 -8 1 -15 -4 -15
-6 0 -10 7 -10 15 0 8 2 15 4 15 2 0 6 -7 10 -15z m68 -10 c-5 -28 -14 -31
-31 -12 -8 10 -7 17 1 25 20 20 36 14 30 -13z m365 -122 c-2 -16 -4 -3 -4 27
0 30 2 43 4 28 2 -16 2 -40 0 -55z m110 45 c-3 -8 -6 -5 -6 6 -1 11 2 17 5 13
3 -3 4 -12 1 -19z m1470 -50 c-3 -7 -5 -2 -5 12 0 14 2 19 5 13 2 -7 2 -19 0
-25z m942 -30 c-7 -13 -20 -34 -30 -47 -16 -20 -19 -21 -19 -6 0 25 23 88 35
97 16 12 27 -20 14 -44z m204 37 c4 -8 2 -17 -2 -20 -5 -2 -11 4 -14 15 -6 23
8 27 16 5z m-2616 -27 c-3 -8 -6 -5 -6 6 -1 11 2 17 5 13 3 -3 4 -12 1 -19z
m2300 0 c-3 -8 -6 -5 -6 6 -1 11 2 17 5 13 3 -3 4 -12 1 -19z m-1567 -30 c0
-4 -4 -8 -10 -8 -5 0 -10 7 -10 15 0 8 -4 15 -10 15 -5 0 -10 5 -10 12 0 6 9
3 20 -7 11 -10 20 -22 20 -27z m1075 23 c3 -5 1 -12 -5 -16 -5 -3 -10 1 -10 9
0 18 6 21 15 7z m133 -14 c2 -12 -3 -17 -17 -17 -12 0 -21 6 -21 13 0 31 32
34 38 4z m720 -4 c-4 -36 -38 -45 -38 -10 0 27 7 37 27 37 10 0 13 -9 11 -27z
m-1449 -12 c-15 -5 -22 6 -14 19 6 9 10 9 16 -1 5 -8 4 -15 -2 -18z m1321 14
c0 -8 -4 -15 -10 -15 -5 0 -10 7 -10 15 0 8 5 15 10 15 6 0 10 -7 10 -15z
m236 -12 c-10 -10 -19 5 -10 18 6 11 8 11 12 0 2 -7 1 -15 -2 -18z m-3004 -18
c-6 -34 -12 -32 -12 6 0 16 4 28 9 25 4 -3 6 -17 3 -31z m218 25 c0 -5 -5 -10
-11 -10 -5 0 -7 5 -4 10 3 6 8 10 11 10 2 0 4 -4 4 -10z m1896 -62 c-15 -21
-16 -22 -16 -2 0 11 6 26 12 32 19 19 22 -4 4 -30z m71 10 c-3 -8 -6 -5 -6 6
-1 11 2 17 5 13 3 -3 4 -12 1 -19z m488 12 c3 -5 1 -10 -4 -10 -6 0 -11 5 -11
10 0 6 2 10 4 10 3 0 8 -4 11 -10z m-2482 -97 c-9 -3 -13 -38 -14 -116 -2
-124 -7 -111 -11 31 -3 87 -2 92 17 91 11 0 14 -3 8 -6z m1742 -98 c-3 -89 -2
-85 -21 -85 -12 0 -15 6 -9 23 4 12 6 31 6 42 -1 11 1 45 5 75 9 76 22 37 19
-55z m235 80 c0 -16 -6 -25 -15 -25 -15 0 -21 31 -8 43 13 14 23 6 23 -18z
m-125 6 c3 -5 1 -12 -5 -16 -5 -3 -10 1 -10 9 0 18 6 21 15 7z m-248 -98 c-2
-21 -4 -6 -4 32 0 39 2 55 4 38 2 -18 2 -50 0 -70z m951 30 c110 -2 112 -1
112 21 0 12 -5 27 -12 34 -9 9 -8 12 5 12 17 0 19 -5 21 -45 1 -18 9 -20 90
-23 65 -2 92 1 98 10 6 10 8 10 8 1 0 -10 44 -13 185 -13 135 0 187 3 195 13
5 6 18 23 28 36 13 16 25 22 36 18 15 -6 16 -26 14 -189 -3 -179 -3 -183 -25
-186 -14 -2 -23 3 -28 18 -16 49 -34 52 -311 46 -194 -4 -260 -9 -266 -18 -4
-7 -6 -29 -2 -49 3 -22 1 -40 -5 -44 -7 -4 -11 3 -11 18 0 30 -10 40 -27 26
-10 -9 -13 -8 -13 4 0 9 5 19 10 22 6 3 10 13 10 21 0 10 -12 14 -45 14 -33 0
-45 -4 -45 -15 0 -8 -4 -15 -10 -15 -5 0 -10 6 -10 14 0 18 -31 24 -110 21
l-65 -2 -3 -152 -3 -151 295 0 295 0 16 31 c10 19 22 29 33 27 15 -3 17 -23
20 -179 2 -150 0 -178 -13 -183 -8 -3 -21 2 -27 10 -48 58 -23 54 -333 54
l-286 0 1 -256 1 -257 26 -21 c67 -55 71 -62 71 -109 -1 -44 -2 -45 -37 -49
-20 -3 -55 -3 -78 0 -40 4 -43 7 -43 33 0 33 16 39 25 9 5 -15 15 -20 40 -20
89 0 22 59 -76 67 -52 4 -68 -8 -78 -60 -10 -48 -35 -42 -39 10 -3 45 -18 57
-57 47 -19 -5 -25 -14 -27 -42 -3 -35 -28 -59 -28 -27 0 34 -30 75 -55 75 -31
0 -34 29 -6 54 12 11 16 25 13 41 -2 15 0 25 7 25 6 0 11 -6 11 -12 0 -10 2
-10 9 0 4 7 6 280 4 605 l-4 592 -31 26 c-21 18 -29 32 -25 43 7 18 49 20 300
16 l127 -2 1 39 2 38 6 -35 6 -35 113 -2z m-1783 48 c3 -5 1 -12 -5 -16 -5 -3
-10 1 -10 9 0 18 6 21 15 7z m-1185 -78 c0 -12 2 -28 5 -36 3 -7 -3 -24 -13
-37 -16 -20 -28 -24 -63 -22 -96 6 -110 119 -19 158 21 9 30 7 57 -15 19 -15
33 -35 33 -48z m1680 43 c8 -3 42 -10 75 -16 71 -14 258 -74 298 -96 15 -8 32
-12 38 -8 6 3 15 1 19 -7 7 -10 16 -10 42 -3 66 21 74 -3 28 -87 -16 -30 -30
-65 -30 -77 0 -13 -9 -31 -20 -40 -11 -10 -29 -39 -39 -67 -10 -27 -25 -54
-34 -59 -20 -13 -47 0 -47 23 0 53 -226 176 -313 170 -17 -1 -45 3 -60 10 -38
15 -97 14 -98 -1 0 -10 -2 -10 -6 0 -6 16 -56 15 -141 -4 -116 -26 -178 -97
-158 -179 8 -29 63 -68 89 -61 9 2 17 1 17 -4 0 -11 47 -19 220 -35 156 -15
172 -17 290 -37 77 -12 206 -77 257 -128 20 -19 49 -64 67 -100 29 -62 31 -71
30 -180 0 -104 -3 -120 -27 -168 -19 -35 -25 -60 -21 -77 10 -40 -1 -56 -30
-45 -18 6 -29 6 -38 -3 -30 -28 -97 -66 -158 -90 -247 -97 -580 -78 -863 49
-91 41 -102 44 -113 30 -10 -14 -16 -15 -38 -5 -14 7 -26 18 -26 26 0 11 72
179 130 306 9 17 21 27 35 27 18 0 24 -7 30 -37 4 -20 20 -49 37 -67 35 -35
46 -25 29 25 -8 23 -7 36 2 52 6 12 12 28 12 36 0 23 23 24 30 2 4 -14 -1 -31
-14 -50 -26 -37 -26 -39 4 -67 14 -12 22 -29 19 -37 -6 -17 53 -44 171 -78 97
-28 293 -33 359 -8 l39 14 0 85 c0 74 1 77 4 18 5 -93 21 -104 74 -48 38 40
41 47 36 86 -2 24 0 45 5 46 5 2 0 16 -12 31 -30 38 -92 53 -325 77 -110 11
-237 27 -282 36 -76 15 -83 15 -98 0 -9 -9 -24 -16 -33 -16 -12 0 -13 3 -4 12
20 20 13 38 -20 53 -87 36 -173 174 -185 297 -10 113 23 213 102 307 40 48
129 110 175 123 14 3 51 14 82 22 90 26 337 40 388 22z m2618 -26 c-2 -6 -8
-6 -18 0 -13 9 -13 11 0 20 15 10 25 0 18 -20z m-3641 -42 c-3 -7 -5 -2 -5 12
0 14 2 19 5 13 2 -7 2 -19 0 -25z m-432 -38 c3 -5 1 -10 -4 -10 -6 0 -11 5
-11 10 0 6 2 10 4 10 3 0 8 -4 11 -10z m-268 -82 c-3 -7 -5 -2 -5 12 0 14 2
19 5 13 2 -7 2 -19 0 -25z m4123 12 c0 -14 -6 -20 -22 -19 -17 1 -19 2 -5 6 9
2 17 11 17 19 0 8 2 14 5 14 3 0 5 -9 5 -20z m200 -5 c0 -8 -7 -15 -15 -15
-13 0 -14 3 -3 15 16 18 18 18 18 0z m-3923 -89 c-4 -9 -11 -16 -17 -16 -17 0
-24 31 -9 41 18 11 34 -5 26 -25z m121 -35 c2 -45 0 -61 -9 -56 -6 4 -9 19 -5
36 3 16 3 29 -1 29 -14 0 -43 -34 -43 -52 0 -10 -7 -18 -15 -18 -24 0 -18 40
9 61 13 10 27 30 30 45 12 46 31 21 34 -45z m-538 49 c0 -5 -9 -10 -20 -10
-11 0 -20 5 -20 10 0 6 9 10 20 10 11 0 20 -4 20 -10z m650 -11 c0 -18 -2 -19
-15 -9 -15 12 -12 30 6 30 5 0 9 -10 9 -21z m120 7 c0 -8 -4 -17 -9 -21 -12
-7 -24 12 -16 25 9 15 25 12 25 -4z m1670 4 c0 -5 -7 -10 -16 -10 -8 0 -12 5
-9 10 3 6 10 10 16 10 5 0 9 -4 9 -10z m-1480 -9 c0 -5 -7 -14 -15 -21 -13
-10 -15 -9 -15 9 0 12 6 21 15 21 8 0 15 -4 15 -9z m3420 -28 c0 -12 -2 -12
-15 1 -8 8 -15 17 -15 20 0 3 7 3 15 0 8 -4 15 -13 15 -21z m-2016 -10 c-7
-16 -14 -38 -14 -50 0 -12 -4 -25 -10 -28 -6 -4 -10 8 -10 29 0 20 5 36 10 36
6 0 10 9 10 20 0 11 6 20 14 20 13 0 13 -4 0 -27z m-2084 1 c0 -8 -5 -12 -10
-9 -6 4 -8 11 -5 16 9 14 15 11 15 -7z m-252 -6 c14 -14 16 -68 2 -68 -5 0
-10 9 -10 20 0 12 -9 22 -24 26 -36 9 -43 0 -44 -50 -1 -36 3 -49 21 -61 16
-11 18 -15 5 -15 -32 0 -62 36 -62 73 0 64 74 113 112 75z m819 -35 c-3 -10
-5 -2 -5 17 0 19 2 27 5 18 2 -10 2 -26 0 -35z m-139 -14 c-9 -6 -14 -2 -16
13 -2 11 2 25 10 29 9 6 14 2 16 -13 2 -11 -2 -25 -10 -29z m269 4 c-3 -10 -5
-2 -5 17 0 19 2 27 5 18 2 -10 2 -26 0 -35z m1453 1 c0 -26 -26 -14 -28 12 -2
22 0 25 13 14 8 -7 15 -19 15 -26z m920 -30 c0 -36 -3 -63 -7 -61 -8 5 -5 127
3 127 2 0 4 -30 4 -66z m240 -59 c0 -69 -3 -125 -7 -125 -5 0 -7 50 -5 111 2
75 -1 115 -9 125 -9 11 -8 14 5 14 14 0 16 -16 16 -125z m-3291 89 c2 -2 -8
-4 -22 -4 -18 0 -27 5 -27 15 0 13 4 14 23 4 12 -6 24 -13 26 -15z m2808 -16
c-3 -8 -6 -5 -6 6 -1 11 2 17 5 13 3 -3 4 -12 1 -19z m-2213 -69 c-2 -4 -11
-6 -19 -2 -16 5 -20 25 -8 37 9 9 34 -24 27 -35z m-474 -1 c0 -5 -9 -8 -20 -8
-22 0 -28 26 -7 33 12 4 27 -10 27 -25z m116 21 c8 -14 -11 -33 -25 -25 -11 7
-4 36 9 36 5 0 12 -5 16 -11z m124 -15 c0 -8 -9 -14 -20 -14 -22 0 -28 26 -7
33 16 6 27 -1 27 -19z m114 -5 c-10 -16 -24 -9 -24 12 0 18 2 19 15 9 8 -7 12
-16 9 -21z m2406 5 c12 -31 -2 -54 -32 -54 -18 0 -20 5 -14 32 5 26 20 47 34
48 1 0 7 -12 12 -26z m699 -1 c0 -25 -1 -26 -9 -8 -12 27 -12 35 0 35 6 0 10
-12 9 -27z m181 -7 c0 -8 -4 -18 -10 -21 -5 -3 -10 3 -10 14 0 12 5 21 10 21
6 0 10 -6 10 -14z m-1010 -11 c0 -8 -4 -15 -10 -15 -5 0 -10 7 -10 15 0 8 5
15 10 15 6 0 10 -7 10 -15z m-2770 -33 c0 -4 -5 -13 -11 -19 -7 -7 -9 -19 -5
-28 5 -14 9 -15 21 -5 12 10 15 9 15 -7 0 -16 -5 -19 -25 -15 -20 3 -25 10
-25 36 0 18 3 36 7 39 9 10 23 9 23 -1z m3514 -7 c3 -8 1 -15 -4 -15 -6 0 -10
7 -10 15 0 8 2 15 4 15 2 0 6 -7 10 -15z m-3860 -107 c4 -19 13 -28 26 -28 11
0 20 5 20 10 0 14 33 13 48 -2 15 -15 17 -162 2 -153 -5 3 -10 28 -10 56 0 36
-4 49 -15 49 -7 0 -19 8 -25 18 -17 29 -50 -19 -50 -74 0 -24 -4 -44 -10 -44
-12 0 -14 193 -3 204 4 4 8 4 9 -1 1 -4 5 -20 8 -35z m551 0 c-4 -13 -6 -34
-6 -47 1 -12 -2 -28 -6 -34 -4 -7 -8 -32 -10 -56 -3 -50 -14 -67 -39 -57 -16
6 -16 7 0 19 12 9 18 30 20 77 2 36 8 77 14 93 14 33 38 37 27 5z m1832 -90
c-2 -24 -4 -7 -4 37 0 44 2 63 4 43 2 -21 2 -57 0 -80z m138 16 c-1 -65 -18
-95 -52 -93 -17 1 -17 2 -1 6 20 5 26 23 32 103 3 30 5 62 6 70 4 41 16 -31
15 -86z m1185 71 c0 -8 -4 -15 -10 -15 -5 0 -10 7 -10 15 0 8 5 15 10 15 6 0
10 -7 10 -15z m-3343 -127 c-3 -7 -5 -2 -5 12 0 14 2 19 5 13 2 -7 2 -19 0
-25z m628 -28 c3 -5 -1 -10 -10 -10 -9 0 -13 5 -10 10 3 6 8 10 10 10 2 0 7
-4 10 -10z m-648 -32 c-3 -7 -5 -2 -5 12 0 14 2 19 5 13 2 -7 2 -19 0 -25z
m3333 28 c0 -2 -3 -11 -6 -20 -9 -23 -24 -20 -24 4 0 11 7 20 15 20 8 0 15 -2
15 -4z m-3680 -143 c0 -26 -1 -26 -17 -10 -16 16 -16 19 -3 27 20 13 20 13 20
-17z m130 11 c0 -3 -7 -12 -15 -20 -13 -14 -15 -13 -15 5 0 12 6 21 15 21 8 0
15 -3 15 -6z m350 -15 c0 -18 -2 -19 -15 -9 -15 12 -12 30 6 30 5 0 9 -10 9
-21z m120 7 c0 -15 -26 -46 -38 -46 -3 0 -1 5 6 12 7 7 12 20 12 30 0 10 5 18
10 18 6 0 10 -6 10 -14z m480 -7 c0 -5 -4 -9 -10 -9 -5 0 -10 7 -10 16 0 8 5
12 10 9 6 -3 10 -10 10 -16z m428 -37 c3 -16 -1 -20 -12 -16 -19 7 -22 48 -3
42 6 -3 13 -14 15 -26z m1013 -5 c-6 -6 -11 -21 -11 -33 0 -13 -6 -29 -13 -36
-7 -7 -18 -25 -24 -40 -15 -33 -33 -37 -33 -8 0 11 6 20 14 20 17 0 26 22 26
65 0 22 6 37 17 44 21 12 39 3 24 -12z m-2391 -8 c0 -11 -4 -17 -10 -14 -5 3
-10 13 -10 21 0 8 5 14 10 14 6 0 10 -9 10 -21z m3108 -6 c-5 -25 -28 -28 -28
-4 0 12 6 21 16 21 9 0 14 -7 12 -17z m-2688 -18 c0 -14 -4 -25 -10 -25 -5 0
-10 11 -10 25 0 14 5 25 10 25 6 0 10 -11 10 -25z m1857 3 c-3 -8 -6 -5 -6 6
-1 11 2 17 5 13 3 -3 4 -12 1 -19z m1063 12 c0 -5 -4 -10 -10 -10 -5 0 -10 5
-10 10 0 6 5 10 10 10 6 0 10 -4 10 -10z m-1930 -25 c0 -8 -4 -15 -10 -15 -5
0 -10 7 -10 15 0 8 5 15 10 15 6 0 10 -7 10 -15z m1600 -37 c0 -16 -3 -19 -11
-11 -6 6 -8 16 -5 22 11 17 16 13 16 -11z m278 -34 c15 -11 9 -54 -9 -54 -5 0
-9 -6 -9 -14 0 -8 -7 -16 -15 -20 -22 -8 -18 13 6 33 17 14 19 20 10 44 -6 16
-11 34 -10 40 0 7 3 5 6 -3 4 -8 13 -20 21 -26z m-2345 1 c4 -8 2 -17 -3 -20
-6 -4 -10 3 -10 14 0 25 6 27 13 6z m2169 3 c5 -15 -20 -68 -32 -68 -14 0 -21
18 -10 25 5 3 10 17 10 31 0 25 25 34 32 12z m-3242 -14 c0 -8 -5 -12 -10 -9
-6 4 -8 11 -5 16 9 14 15 11 15 -7z m130 1 c0 -1 -7 -8 -15 -15 -13 -10 -15
-9 -15 8 0 15 5 20 15 16 8 -4 15 -7 15 -9z m350 5 c0 -5 -5 -10 -11 -10 -5 0
-7 5 -4 10 3 6 8 10 11 10 2 0 4 -4 4 -10z m119 -11 c-15 -9 -32 -2 -24 11 3
5 13 6 21 3 12 -4 13 -8 3 -14z m2541 -35 c0 -8 -4 -12 -10 -9 -5 3 -10 10
-10 16 0 5 5 9 10 9 6 0 10 -7 10 -16z m630 -45 c0 -5 -7 -9 -15 -9 -8 0 -15
7 -15 15 0 9 6 12 15 9 8 -4 15 -10 15 -15z m-217 -14 c-7 -21 -13 -19 -13 6
0 11 4 18 10 14 5 -3 7 -12 3 -20z m-1073 -96 c0 -38 -24 -35 -28 4 -2 19 1
27 12 27 11 0 16 -10 16 -31z m907 11 c9 -13 9 -21 2 -26 -6 -3 -10 -27 -9
-53 4 -72 1 -91 -12 -91 -10 0 -12 24 -10 95 2 52 6 95 10 95 4 0 13 -9 19
-20z m-177 -25 c0 -7 -8 -16 -17 -20 -17 -6 -17 -7 0 -20 17 -13 16 -14 -15
-17 -26 -2 -34 -8 -36 -26 -4 -23 25 -55 40 -46 5 3 19 -7 33 -23 26 -30 27
-63 0 -89 -16 -17 -110 -20 -100 -3 4 5 19 7 34 4 20 -4 32 0 46 15 19 21 19
21 -33 69 -29 26 -52 55 -52 64 0 9 14 26 30 39 17 12 28 28 26 35 -3 7 1 13
9 13 8 0 15 7 15 16 0 8 5 12 10 9 6 -3 10 -12 10 -20z m-3120 -10 c0 -8 -9
-15 -20 -15 -11 0 -23 0 -27 -1 -5 0 -9 7 -11 15 -3 12 5 16 27 16 21 0 31 -5
31 -15z m2143 -2 c-7 -3 -13 -13 -13 -24 0 -10 -4 -19 -10 -19 -5 0 -10 5 -10
12 0 16 32 50 39 42 3 -4 0 -9 -6 -11z m772 7 c3 -6 3 -20 -1 -32 l-6 -21 -18
24 c-10 13 -16 27 -14 31 7 11 32 10 39 -2z m469 -6 c17 -16 21 -42 8 -59 -11
-16 -50 -35 -69 -35 -14 0 -12 5 11 23 24 20 27 28 21 55 -7 35 4 42 29 16z
m-3424 -80 c0 -8 -4 -14 -10 -14 -5 0 -10 9 -10 21 0 11 5 17 10 14 6 -3 10
-13 10 -21z m490 16 c0 -5 -4 -10 -10 -10 -5 0 -10 5 -10 10 0 6 5 10 10 10 6
0 10 -4 10 -10z m1748 -22 c5 -7 10 -37 10 -65 0 -51 -1 -53 -29 -53 -15 0
-31 5 -34 10 -6 10 7 14 33 11 6 -1 12 3 12 9 0 5 -7 10 -16 10 -27 0 -44 30
-30 55 19 35 37 43 54 23z m1452 2 c0 -5 -11 -10 -25 -10 -14 0 -25 5 -25 10
0 6 11 10 25 10 14 0 25 -4 25 -10z m-176 -25 c-17 -26 -12 -58 14 -87 35 -40
77 -10 76 54 -1 36 0 39 20 33 11 -4 31 -9 44 -12 12 -3 22 -11 22 -18 0 -8
-10 -15 -22 -17 -15 -2 -24 -11 -26 -25 -2 -17 -10 -23 -27 -23 -13 0 -27 -4
-30 -10 -11 -17 -61 -11 -80 10 -22 24 -24 98 -4 111 25 16 30 10 13 -16z
m-1394 -16 c0 -5 -7 -9 -15 -9 -9 0 -15 9 -15 21 0 18 2 19 15 9 8 -7 15 -16
15 -21z m301 -22 c-16 -16 -13 -37 5 -37 11 0 15 6 12 18 -3 11 2 23 13 30 30
19 36 14 35 -25 0 -35 -3 -38 -31 -38 -40 0 -41 -29 -1 -33 27 -3 28 -5 22
-44 -4 -25 -2 -46 5 -54 6 -8 9 -24 5 -37 -3 -13 -1 -39 4 -57 5 -19 6 -38 2
-42 -4 -4 -42 -4 -84 -1 l-78 6 0 108 c0 68 4 109 10 109 17 0 24 -31 12 -51
-28 -44 1 -168 35 -155 8 3 21 6 29 6 18 0 18 21 0 45 -12 16 -16 17 -30 6
-10 -8 -16 -9 -16 -3 0 6 5 14 11 18 6 3 9 18 6 33 -5 23 -2 27 18 29 20 1 24
-4 27 -31 4 -42 22 -41 26 1 4 42 -21 98 -48 105 -17 4 -20 13 -20 69 0 73 7
87 28 57 10 -15 11 -24 3 -32z m-1897 28 c3 -8 1 -15 -4 -15 -6 0 -10 7 -10
15 0 8 2 15 4 15 2 0 6 -7 10 -15z m3196 0 c0 -8 -4 -15 -10 -15 -5 0 -7 7 -4
15 4 8 8 15 10 15 2 0 4 -7 4 -15z m420 -35 c0 -39 -4 -50 -16 -50 -11 0 -14
6 -9 20 4 12 1 27 -5 35 -15 18 -6 45 15 45 11 0 15 -12 15 -50z m-4101 10 c3
-25 3 -25 -18 -6 -26 23 -27 39 -3 34 9 -2 19 -14 21 -28z m1248 -2 c-3 -7 -5
-2 -5 12 0 14 2 19 5 13 2 -7 2 -19 0 -25z m-54 15 c12 -21 16 -63 7 -63 -5 0
-10 13 -10 29 0 16 -6 32 -12 34 -10 4 -10 6 -1 6 6 1 14 -2 16 -6z m164 -29
c3 -8 -1 -22 -10 -31 -13 -14 -16 -13 -22 6 -11 35 19 59 32 25z m117 -31 c-3
-27 -7 -49 -8 -50 0 -1 -9 5 -20 12 -16 12 -17 18 -6 49 6 20 18 36 26 36 12
0 14 -9 8 -47z m456 43 c0 -2 -7 -6 -15 -10 -8 -3 -15 -1 -15 4 0 6 7 10 15
10 8 0 15 -2 15 -4z m-765 -66 c3 -5 -1 -10 -10 -10 -9 0 -13 5 -10 10 3 6 8
10 10 10 2 0 7 -4 10 -10z m1027 -76 c-8 -15 -12 -14 -27 10 -17 26 -17 27 1
41 17 12 20 11 27 -10 5 -14 4 -32 -1 -41z m-772 30 c0 -31 -23 -28 -28 4 -2
15 2 22 12 22 11 0 16 -9 16 -26z m-1382 -58 c-1 -44 -2 -50 -5 -22 -3 21 -11
49 -19 61 -15 24 -10 37 12 28 10 -4 14 -22 12 -67z m2042 49 c0 -7 -7 -18
-15 -25 -13 -11 -15 -8 -15 18 0 24 4 30 15 26 8 -4 15 -12 15 -19z m-2173 -7
c-3 -8 -6 -5 -6 6 -1 11 2 17 5 13 3 -3 4 -12 1 -19z m480 0 c-3 -8 -6 -5 -6
6 -1 11 2 17 5 13 3 -3 4 -12 1 -19z m110 0 c-3 -8 -6 -5 -6 6 -1 11 2 17 5
13 3 -3 4 -12 1 -19z m740 -96 c-6 -96 -12 -105 -72 -95 -63 10 -85 45 -85
139 0 48 3 65 13 61 8 -2 11 -22 9 -63 -5 -94 48 -156 90 -106 9 11 15 42 16
90 2 81 9 104 25 77 5 -10 7 -54 4 -103z m2119 95 c-3 -13 1 -32 8 -43 8 -11
16 -47 17 -81 l4 -61 -31 -4 c-65 -8 -104 23 -82 65 14 27 25 20 20 -13 -5
-37 20 -50 48 -25 26 23 25 40 -2 59 -12 9 -17 16 -10 16 15 0 16 36 1 46 -8
4 -8 9 0 17 6 6 11 19 11 29 0 10 5 18 11 18 7 0 9 -9 5 -23z m-2416 -1 c0 -7
-7 -19 -15 -26 -13 -11 -15 -8 -15 14 0 16 5 26 15 26 8 0 15 -6 15 -14z m102
2 c-5 -7 -12 -24 -15 -38 -4 -22 -4 -21 -6 7 -1 26 6 38 28 42 2 1 -1 -5 -7
-11z m318 -59 c9 -16 7 -19 -15 -19 -18 0 -25 5 -25 18 0 37 21 38 40 1z
m1281 -5 c-10 -38 -5 -53 19 -47 14 4 21 -2 26 -21 3 -15 4 -30 0 -33 -3 -4
-6 3 -6 15 0 13 -6 22 -15 22 -10 0 -15 -10 -15 -30 0 -33 -16 -41 -24 -12 -3
9 -8 39 -12 65 -5 40 -3 50 12 62 24 17 25 15 15 -21z m-1814 -6 c-3 -7 -5 -2
-5 12 0 14 2 19 5 13 2 -7 2 -19 0 -25z m649 15 c21 -28 16 -35 -17 -28 -18 4
-34 3 -38 -3 -4 -6 -11 -4 -19 4 -11 12 -9 14 13 14 14 0 28 7 31 15 8 19 14
19 30 -2z m711 -35 c-2 -13 -4 -5 -4 17 -1 22 1 32 4 23 2 -10 2 -28 0 -40z
m394 19 c-8 -8 -11 -7 -11 4 0 20 13 34 18 19 3 -7 -1 -17 -7 -23z m-1624 -14
c-3 -10 -5 -4 -5 12 0 17 2 24 5 18 2 -7 2 -21 0 -30z m1183 18 c0 -11 3 -27
6 -36 6 -15 4 -15 -15 -4 -24 16 -29 59 -6 59 8 0 15 -9 15 -19z m1477 13 c-3
-3 -12 -4 -19 -1 -8 3 -5 6 6 6 11 1 17 -2 13 -5z m-3159 -26 c-2 -13 -7 -23
-13 -23 -5 0 -11 10 -13 23 -2 15 2 22 13 22 11 0 15 -7 13 -22z m3072 -10
c-28 -31 -29 -117 0 -138 23 -17 26 -30 7 -30 -37 0 -66 84 -47 134 12 33 31
55 48 56 8 0 5 -8 -8 -22z m-452 -24 c-5 -28 -28 -29 -28 -1 0 13 3 27 7 31
10 10 25 -10 21 -30z m-2471 -11 c-3 -10 -5 -4 -5 12 0 17 2 24 5 18 2 -7 2
-21 0 -30z m2523 35 c-1 -2 -7 -28 -14 -58 l-13 -55 -6 49 c-4 26 -4 52 -1 57
4 8 35 14 34 7z m-932 -40 c11 -15 1 -48 -21 -67 -12 -10 -20 -10 -38 0 -21
11 -21 13 -6 24 9 7 17 19 17 27 0 29 29 38 48 16z m-118 -33 c0 -8 8 -16 18
-18 9 -3 2 -5 -15 -6 -30 -1 -33 1 -33 30 0 27 2 30 15 19 8 -7 15 -18 15 -25z
m-1570 -10 c-7 -8 -16 -15 -21 -15 -11 0 1 33 15 42 16 11 20 -10 6 -27z m480
16 c0 -11 -4 -23 -10 -26 -6 -4 -10 5 -10 19 0 14 5 26 10 26 6 0 10 -9 10
-19z m2187 -28 c-3 -10 -5 -2 -5 17 0 19 2 27 5 18 2 -10 2 -26 0 -35z m-2787
21 c0 -8 -5 -12 -10 -9 -6 4 -8 11 -5 16 9 14 15 11 15 -7z m480 6 c0 -5 -4
-10 -10 -10 -5 0 -10 5 -10 10 0 6 5 10 10 10 6 0 10 -4 10 -10z m3467 -22
c-3 -7 -5 -2 -5 12 0 14 2 19 5 13 2 -7 2 -19 0 -25z m-3600 -4 c-3 -3 -12 -4
-19 -1 -8 3 -5 6 6 6 11 1 17 -2 13 -5z m2170 0 c-3 -3 -12 -4 -19 -1 -8 3 -5
6 6 6 11 1 17 -2 13 -5z m-480 -46 c-3 -8 -6 -5 -6 6 -1 11 2 17 5 13 3 -3 4
-12 1 -19z m1213 -18 c0 -5 -13 -10 -30 -10 -33 0 -35 -2 -19 -31 13 -25 3
-62 -11 -40 -4 8 -6 21 -3 29 3 8 0 18 -7 22 -10 6 -10 11 1 24 15 17 69 22
69 6z m-1782 -60 c-9 -14 -9 -25 1 -46 8 -19 9 -30 1 -38 -13 -13 -13 -42 2
-66 14 -22 6 -35 -17 -27 -12 5 -15 25 -15 101 0 66 4 96 13 99 20 7 27 -3 15
-23z m-651 -28 c0 -52 11 -69 29 -45 13 17 13 17 14 0 0 -11 -8 -21 -19 -24
-19 -5 -38 -33 -43 -66 -4 -26 -54 -55 -69 -40 -8 8 -3 15 20 27 31 16 31 17
31 100 0 58 4 86 13 89 20 7 24 0 24 -41z m983 -12 c0 -47 -3 -60 -15 -60 -17
0 -20 35 -4 46 6 3 9 22 7 40 -2 19 0 34 4 34 4 0 8 -27 8 -60z m-1253 34 c-3
-3 -12 -4 -19 -1 -8 3 -5 6 6 6 11 1 17 -2 13 -5z m-237 -54 c0 -29 -4 -40
-15 -40 -17 0 -20 25 -5 35 6 3 10 15 10 26 0 10 2 19 5 19 3 0 5 -18 5 -40z
m945 31 c3 -5 1 -12 -5 -16 -5 -3 -10 1 -10 9 0 18 6 21 15 7z m753 -3 c16
-16 15 -28 -2 -28 -7 0 -16 9 -19 20 -6 23 3 26 21 8z m-465 -33 c-6 -16 -16
-19 -26 -8 -9 8 13 34 24 28 4 -3 6 -12 2 -20z m727 11 c0 -17 -14 -29 -23
-20 -8 8 3 34 14 34 5 0 9 -6 9 -14z m1660 -6 c0 -5 -2 -10 -4 -10 -3 0 -8 5
-11 10 -3 6 -1 10 4 10 6 0 11 -4 11 -10z m-3382 -80 c3 -65 1 -72 -13 -60
-19 16 -22 144 -2 138 8 -3 13 -30 15 -78z m1512 60 c0 -15 -7 -20 -27 -20
l-28 0 25 20 c31 24 30 24 30 0z m1905 -12 c6 -4 2 -8 -7 -8 -10 0 -18 7 -18
17 0 9 3 12 8 7 4 -5 12 -12 17 -16z m-745 2 c8 -5 10 -10 4 -10 -22 0 -26
-51 -7 -72 15 -17 15 -21 3 -28 -26 -17 -30 -11 -30 45 l0 55 -42 2 -43 1 45
7 c25 4 47 8 50 8 3 1 12 -3 20 -8z m70 -6 c0 -2 -9 -4 -21 -4 -11 0 -18 4
-14 10 5 8 35 3 35 -6z m-621 -1 c-25 -4 -27 -8 -33 -81 -4 -43 -4 -85 0 -95
3 -10 1 -17 -5 -17 -12 0 -16 181 -4 193 3 4 20 6 37 6 29 -2 29 -2 5 -6z
m121 -97 c0 -31 -34 -76 -56 -76 -9 0 -7 10 7 35 24 39 20 102 -6 112 -8 3
-12 10 -8 16 11 18 63 -54 63 -87z m296 62 c-9 -13 -16 -43 -16 -72 0 -27 -3
-47 -6 -44 -11 12 -5 107 8 122 20 24 31 19 14 -6z m-1506 -38 c0 -19 -19 -26
-60 -20 -51 7 -29 40 28 40 25 0 32 -4 32 -20z m380 -6 c0 -8 -4 -14 -10 -14
-5 0 -10 9 -10 21 0 11 5 17 10 14 6 -3 10 -13 10 -21z m-210 -1 c-1 -18 -18
-35 -24 -24 -4 6 -4 16 -1 21 7 12 25 13 25 3z m1187 -15 c-3 -8 -6 -5 -6 6
-1 11 2 17 5 13 3 -3 4 -12 1 -19z m-1137 -39 c0 -10 -4 -19 -9 -19 -5 0 -12
-8 -14 -17 -3 -10 -5 1 -6 24 -1 34 2 41 14 37 8 -4 15 -15 15 -25z m-260 -9
c0 -5 -5 -10 -11 -10 -5 0 -7 5 -4 10 3 6 8 10 11 10 2 0 4 -4 4 -10z m40 0
c0 -5 -5 -10 -11 -10 -5 0 -7 5 -4 10 3 6 8 10 11 10 2 0 4 -4 4 -10z m710
-56 c0 -15 -6 -24 -15 -24 -21 0 -30 27 -15 45 16 19 30 10 30 -21z m-1730
-18 c0 -3 -4 -8 -10 -11 -5 -3 -10 -1 -10 4 0 6 5 11 10 11 6 0 10 -2 10 -4z
m751 -79 c-6 -6 -11 -21 -11 -34 0 -13 -4 -23 -10 -23 -14 0 -13 14 8 73 15
47 17 49 20 23 2 -16 -1 -33 -7 -39z m-741 12 c0 -6 7 -17 15 -25 16 -17 10
-44 -12 -44 -8 0 -11 5 -8 11 4 5 4 22 0 36 -5 21 -10 24 -35 21 -17 -3 -30
-1 -30 4 0 4 16 8 35 8 19 0 35 -5 35 -11z m1599 -93 c-1 -20 -2 -20 -6 -1 -3
11 -9 24 -14 30 -5 5 -9 20 -9 35 1 23 2 23 15 -9 8 -18 14 -43 14 -55z
m-1679 28 c0 -27 -4 -43 -10 -39 -13 8 -13 85 0 85 6 0 10 -21 10 -46z m338
20 c13 -24 2 -63 -20 -70 -24 -7 -36 2 -20 18 7 7 12 25 12 40 0 31 14 37 28
12z m-518 -14 c0 -5 -5 -10 -11 -10 -5 0 -7 5 -4 10 3 6 8 10 11 10 2 0 4 -4
4 -10z m1238 -31 c-12 -7 -24 -7 -35 0 -15 9 -12 10 17 10 29 0 32 -1 18 -10z
m409 5 c-3 -3 -12 -4 -19 -1 -8 3 -5 6 6 6 11 1 17 -2 13 -5z"/>
<path d="M2733 4912 c-39 -25 -30 -112 11 -112 18 0 25 9 34 39 16 51 15 68
-4 75 -20 8 -26 7 -41 -2z"/>
<path d="M3218 4652 c-20 -4 -31 -45 -23 -83 5 -22 12 -29 29 -29 18 0 25 9
34 39 7 21 12 45 12 53 0 17 -25 26 -52 20z"/>
<path d="M3031 4343 c-1 -12 -7 -23 -13 -25 -10 -4 -10 -10 -1 -31 13 -28 6
-36 -14 -16 -9 9 -16 8 -28 -5 -23 -23 -15 -50 15 -54 22 -2 29 4 44 38 14 33
16 48 8 78 -6 24 -10 29 -11 15z"/>
<path d="M3774 4299 c-3 -6 -1 -16 5 -22 8 -8 11 -5 11 11 0 24 -5 28 -16 11z"/>
<path d="M1270 3370 c0 -5 5 -10 10 -10 6 0 10 5 10 10 0 6 -4 10 -10 10 -5 0
-10 -4 -10 -10z"/>
<path d="M1318 3364 c6 -3 12 -12 12 -19 0 -22 34 -35 87 -34 90 1 95 14 13
33 -105 23 -127 27 -112 20z"/>
<path d="M1283 3333 c-22 -8 -14 -23 12 -23 16 0 25 6 25 15 0 15 -14 18 -37
8z"/>
<path d="M2490 3176 c0 -8 3 -22 6 -31 5 -13 8 -14 15 -3 13 20 11 35 -6 42
-9 3 -15 0 -15 -8z"/>
<path d="M1460 3015 c-154 -15 -200 -24 -200 -38 0 -11 109 -7 340 13 242 22
498 -3 665 -64 36 -13 65 -22 65 -19 0 2 -25 15 -56 29 -189 84 -484 112 -814
79z"/>
<path d="M2983 2893 c37 -2 96 -2 130 0 34 2 4 3 -68 3 -71 0 -99 -1 -62 -3z"/>
<path d="M2865 2854 c-84 -11 -166 -27 -162 -30 2 -3 78 -9 168 -14 168 -10
384 -26 824 -60 267 -21 343 -24 265 -9 -25 5 -85 15 -135 23 -49 8 -128 22
-175 30 -47 8 -123 19 -170 26 -47 7 -110 17 -140 22 -57 10 -423 19 -475 12z"/>
<path d="M1615 2790 c-55 -4 -152 -13 -215 -20 -63 -6 -158 -16 -210 -20 -72
-7 -46 -8 110 -4 113 2 399 7 635 11 385 6 423 8 365 20 -81 15 -550 25 -685
13z"/>
<path d="M4023 2723 c9 -2 25 -2 35 0 9 3 1 5 -18 5 -19 0 -27 -2 -17 -5z"/>
<path d="M3050 3916 c0 -9 5 -16 10 -16 6 0 10 4 10 9 0 6 -4 13 -10 16 -5 3
-10 -1 -10 -9z"/>
<path d="M3030 974 c0 -8 5 -12 10 -9 6 3 10 10 10 16 0 5 -4 9 -10 9 -5 0
-10 -7 -10 -16z"/>
<path d="M75 2377 c-18 -26 -19 -56 -1 -79 19 -26 49 -22 73 10 l21 29 -21 25
c-31 37 -54 41 -72 15z"/>
<path d="M2890 4952 c0 -57 31 -96 72 -90 31 4 52 64 37 108 -10 28 -14 30
-60 30 l-49 0 0 -48z"/>
<path d="M3166 4984 c-3 -9 -6 -29 -6 -45 0 -40 33 -39 57 1 9 17 21 30 25 30
4 0 8 7 8 15 0 22 -76 21 -84 -1z"/>
<path d="M3263 4983 c-4 -10 -15 -25 -25 -34 -10 -9 -18 -24 -18 -33 0 -9 -4
-16 -10 -16 -13 0 -13 -27 1 -35 22 -14 56 6 77 46 26 48 27 56 8 75 -19 18
-25 18 -33 -3z"/>
<path d="M2292 128 c-7 -7 -12 -16 -12 -20 0 -5 -9 -18 -20 -30 -25 -27 -26
-58 -2 -57 9 0 31 8 47 18 33 19 45 62 24 87 -14 17 -21 18 -37 2z"/>
</g>
</svg>
